# xmcd
#
# Track frame offsets:
#	150
#	15550
#	29522
#	41867
#	54150
#	68230
#	77979
#	90587
#	103017
#	116600
#	129547
#	140250
#	152660
#	165707
#	177662
#
# Disc length: 2525
#
# Revision: 1
# Processed by: cddbd v1.5.2PL0 Copyright (c) Steve Scherf et al.
# Submitted via: kJams Pro (development) 1.0patch52.1
#
DISCID=c809db0f
DTITLE=Various Artist - SC 8392
DYEAR=2011
DGENRE=Karaoke
TTITLE0=Sonny James - Since I Met You Baby
TTITLE1=Webb Pierce - Love, Love, Love
TTITLE2=Johnny Cash - Get Rhythm
TTITLE3=Stonewall Jackson - Waterloo
TTITLE4=Conway Twitty - Next In Line
TTITLE5=Webb Pierce - I Ain't Never
TTITLE6=Marty Robbins - Story Of My Life
TTITLE7=Ray Price - My Shoes Keep Walking Back To You
TTITLE8=Ernest Tubb - Waltz Across Texas
TTITLE9=Tenessee Ernie Ford - Shotgun Boogie
TTITLE10=Jim Reeves - Billy Bayou
TTITLE11=Ferlin Husky - Gone
TTITLE12=Henson Cargill - Skip A Rope
TTITLE13=Hank Williams - Why Don't You Love Me
TTITLE14=Buck Owens - Waiting In Your Welfare Line
EXTD=
EXTT0=
EXTT1=
EXTT2=
EXTT3=
EXTT4=
EXTT5=
EXTT6=
EXTT7=
EXTT8=
EXTT9=
EXTT10=
EXTT11=
EXTT12=
EXTT13=
EXTT14=
PLAYORDER=
